<svg width="360" height="361" xmlns="http://www.w3.org/2000/svg" xmlns:xlink="http://www.w3.org/1999/xlink" xml:space="preserve" overflow="hidden"><defs><clipPath id="clip0"><rect x="352" y="197" width="360" height="361"/></clipPath><clipPath id="clip1"><rect x="353" y="198" width="359" height="360"/></clipPath><clipPath id="clip2"><rect x="353" y="198" width="359" height="360"/></clipPath><clipPath id="clip3"><rect x="353" y="198" width="359" height="360"/></clipPath></defs><g clip-path="url(#clip0)" transform="translate(-352 -197)"><g clip-path="url(#clip1)"><g clip-path="url(#clip2)"><g clip-path="url(#clip3)"><path d="M108.007 113.309C110.378 113.339 113.085 113.336 115.983 113.309 116.613 146.328 143.89 172.584 176.908 171.954 209.211 171.338 235.182 145.174 235.56 112.868 236.648 109.181 243.574 83.9948 235.253 68.0679 229.896 56.8334 218.36 49.8715 205.924 50.3684 199.81 45.5294 174.175 28.2451 138.129 45.2639 108.586 59.2013 107.73 89.765 107.767 94.3534L104.402 108.732C103.93 110.743 105.179 112.755 107.19 113.226 107.455 113.288 107.727 113.321 107.999 113.324ZM175.76 164.542C147.216 164.501 123.956 141.618 123.451 113.078 137.433 112.498 153.929 110.684 164.306 105.782 177.885 99.3719 195.045 84.9334 200.445 80.244 205.629 82.6336 210.218 86.1432 213.882 90.5203 216.944 94.2629 219.594 98.3237 221.787 102.633 223.537 105.755 225.527 109.286 228.062 113.201 227.493 141.691 204.256 164.501 175.76 164.542ZM115.157 95.5763C115.232 95.2539 115.264 94.9233 115.254 94.5928 115.217 93.3737 114.573 64.6312 141.323 52.0026 150.018 47.7055 159.563 45.4056 169.261 45.2714 181.27 45.1132 192.94 49.2496 202.169 56.9352 203.02 57.7392 204.196 58.1012 205.352 57.9149 215.204 57.0305 224.538 62.4791 228.612 71.4934 233.279 80.4272 231.933 93.8074 230.295 102.491 229.592 101.264 228.934 100.09 228.302 98.9643 225.865 94.1994 222.918 89.713 219.514 85.5841 214.585 79.4385 207.989 74.8437 200.516 72.3497 199.323 72.0633 198.066 72.3808 197.151 73.1986 196.941 73.3856 176.138 91.9339 161.131 99.0017 148.951 104.749 125.844 105.733 112.775 105.815Z" fill="#000000" fill-rule="nonzero" fill-opacity="1" transform="matrix(1 0 0 1.00279 353 198)"/><path d="M286.202 222.599C269.036 209.384 249.372 199.785 228.395 194.38 223.564 192.933 218.698 191.684 213.938 190.666L212.042 190.259 210.617 191.579C195.378 205.677 185.05 205.677 179.5 205.677 173.95 205.677 163.536 205.677 148.372 191.766L146.954 190.464 145.085 190.861C140.504 191.826 135.665 193.004 130.661 194.369 109.936 200.442 90.3876 209.978 72.8433 222.573 64.7991 228.875 60.0207 238.465 59.8333 248.682L59.8333 306.646 67.3125 306.646 67.3125 248.682C67.4774 240.796 71.1654 233.397 77.3645 228.518 94.1545 216.5 112.85 207.397 132.665 201.593 136.816 200.472 140.893 199.454 144.763 198.602 159.306 211.387 170.465 213.156 179.5 213.156 188.535 213.156 199.634 211.365 214.241 198.389 218.208 199.286 222.243 200.344 226.293 201.56 246.318 206.695 265.096 215.829 281.497 228.414 287.768 233.294 291.511 240.738 291.688 248.682L291.688 306.646 299.167 306.646 299.167 248.682C298.986 238.481 294.224 228.902 286.202 222.599Z" fill="#000000" fill-rule="nonzero" fill-opacity="1" transform="matrix(1 0 0 1.00279 353 198)"/></g></g></g></g></svg>